<?xml version="1.0" encoding="utf-8"?>
<!-- Generator: Adobe Illustrator 17.0.0, SVG Export Plug-In . SVG Version: 6.00 Build 0)  -->
<!DOCTYPE svg PUBLIC "-//W3C//DTD SVG 1.1//EN" "http://www.w3.org/Graphics/SVG/1.1/DTD/svg11.dtd">
<svg version="1.1" id="Layer_1" xmlns="http://www.w3.org/2000/svg" xmlns:xlink="http://www.w3.org/1999/xlink" x="0px" y="0px"
	 width="115px" height="30px" viewBox="0 0 115 30" enable-background="new 0 0 115 30" xml:space="preserve">
<g>
</g>
<g>
	<g>
		<polygon fill="#771B85" points="14,1 2,8 2,22 14,29 		"/>
		<polygon fill="#EB743B" points="15,1 27,8 27,22 15,29 		"/>
	</g>
	<g>
		<g>
			<path fill="#771B85" d="M40.361,18.485V25h-4.801V5.236h7.346c2.114,0,3.822,0.635,5.123,1.904
				c1.301,1.269,1.951,2.919,1.951,4.949c0,1.929-0.639,3.475-1.917,4.636c-1.278,1.162-2.98,1.749-5.106,1.76H40.361z
				 M40.361,14.533h2.545c0.78,0,1.357-0.227,1.73-0.679c0.373-0.452,0.56-1.023,0.56-1.714c0-0.882-0.209-1.586-0.628-2.111
				C44.15,9.503,43.596,9.24,42.906,9.24h-2.545V14.533z"/>
			<path fill="#771B85" d="M52.81,3.743c0-0.687,0.219-1.249,0.655-1.686c0.438-0.438,1.02-0.655,1.748-0.655
				c0.729,0,1.312,0.218,1.748,0.655c0.438,0.437,0.656,0.999,0.656,1.686c0,0.677-0.217,1.238-0.648,1.685
				C56.537,5.876,55.952,6.1,55.213,6.1c-0.738,0-1.324-0.224-1.756-0.671C53.025,4.981,52.81,4.42,52.81,3.743z M57.445,25h-4.433
				V8.113h4.433V25z"/>
			<path fill="#771B85" d="M66.965,21.676c1.28,0,1.93-0.843,1.951-2.528h4.151c-0.021,1.842-0.588,3.329-1.701,4.464
				c-1.113,1.134-2.55,1.701-4.308,1.701c-2.175,0-3.834-0.677-4.979-2.029c-1.145-1.352-1.728-3.345-1.748-5.977v-1.342
				c0-2.653,0.564-4.677,1.693-6.071c1.129-1.395,2.796-2.092,5.002-2.092c1.862,0,3.329,0.575,4.401,1.725
				c1.071,1.149,1.617,2.781,1.639,4.893h-4.151c-0.011-0.957-0.167-1.692-0.469-2.208c-0.302-0.515-0.801-0.773-1.498-0.773
				c-0.771,0-1.321,0.274-1.654,0.824s-0.51,1.615-0.53,3.195v1.728c0,1.382,0.067,2.348,0.202,2.897
				c0.136,0.55,0.359,0.952,0.672,1.209C65.95,21.548,66.393,21.676,66.965,21.676z"/>
			<path fill="#771B85" d="M83.587,25c-0.125-0.26-0.25-0.697-0.375-1.31c-0.791,1.082-1.862,1.623-3.215,1.623
				c-1.415,0-2.589-0.469-3.52-1.405c-0.932-0.937-1.396-2.148-1.396-3.636c0-1.769,0.564-3.138,1.693-4.105
				s2.754-1.461,4.877-1.482h1.342v-1.357c0-0.76-0.13-1.296-0.39-1.607c-0.261-0.313-0.64-0.469-1.14-0.469
				c-1.103,0-1.654,0.646-1.654,1.936h-4.417c0-1.561,0.586-2.849,1.756-3.863c1.171-1.015,2.65-1.522,4.44-1.522
				c1.852,0,3.285,0.481,4.3,1.443c1.015,0.963,1.521,2.339,1.521,4.129v7.943c0.021,1.457,0.229,2.597,0.625,3.418V25H83.587z
				 M80.98,21.848c0.488,0,0.905-0.099,1.248-0.297c0.344-0.197,0.599-0.432,0.765-0.702v-3.512h-1.061
				c-0.749,0-1.34,0.239-1.771,0.718c-0.432,0.478-0.647,1.119-0.647,1.92C79.514,21.223,80.002,21.848,80.98,21.848z"/>
			<path fill="#771B85" d="M98.944,12.374l-1.467-0.125c-1.207,0-2.023,0.53-2.45,1.592V25h-4.433V8.113h4.167l0.125,1.826
				c0.697-1.426,1.659-2.139,2.888-2.139c0.499,0,0.905,0.068,1.217,0.203L98.944,12.374z"/>
			<path fill="#771B85" d="M100.318,16.041c0-2.768,0.468-4.832,1.404-6.195c0.937-1.363,2.3-2.045,4.089-2.045
				c1.301,0,2.383,0.562,3.247,1.686V3h4.447v22h-4.011l-0.203-1.717c-0.905,1.353-2.07,2.029-3.496,2.029
				c-1.769,0-3.118-0.677-4.05-2.029c-0.932-1.352-1.407-3.34-1.428-5.962V16.041z M104.751,17.149c0,1.665,0.177,2.828,0.53,3.488
				c0.354,0.661,0.952,0.991,1.795,0.991c0.874,0,1.534-0.391,1.982-1.171v-7.71c-0.438-0.832-1.093-1.248-1.967-1.248
				c-0.812,0-1.404,0.327-1.779,0.983c-0.375,0.655-0.562,1.82-0.562,3.496V17.149z"/>
		</g>
	</g>
</g>
</svg>
