<?xml version="1.0" encoding="utf-8"?>
<!-- Generator: Adobe Illustrator 26.1.0, SVG Export Plug-In . SVG Version: 6.00 Build 0)  -->
<svg version="1.1" id="a" xmlns="http://www.w3.org/2000/svg" xmlns:xlink="http://www.w3.org/1999/xlink" x="0px" y="0px"
	 width="128.5px" height="30px" viewBox="0 0 128.5 30" style="enable-background:new 0 0 128.5 30;" xml:space="preserve">
<style type="text/css">
	.st0{fill:#771B85;}
	.st1{fill:#EB743B;}
</style>
<g>
	<polygon class="st0" points="14,1 2,8 2,22 14,29 	"/>
	<polygon class="st1" points="15,1 27,8 27,22 15,29 	"/>
</g>
<g>
	<path class="st0" d="M41.2,19.3V27h-5.5V4.3h9.1c1.7,0,3.3,0.3,4.6,1c1.3,0.6,2.4,1.5,3.1,2.7c0.7,1.2,1.1,2.5,1.1,4
		c0,2.2-0.8,4-2.4,5.3c-1.6,1.3-3.8,2-6.5,2C44.7,19.3,41.2,19.3,41.2,19.3z M41.2,15.1h3.6c1.1,0,1.9-0.3,2.4-0.8s0.8-1.3,0.8-2.2
		c0-1.1-0.3-1.9-0.9-2.5s-1.3-1-2.3-1h-3.7V15.1L41.2,15.1z"/>
	<path class="st0" d="M56.2,5.7c0-0.8,0.3-1.4,0.8-1.8s1.2-0.7,2.1-0.7s1.6,0.2,2.1,0.7s0.8,1.1,0.8,1.8s-0.3,1.4-0.8,1.8
		S60,8.3,59.2,8.3s-1.6-0.2-2.1-0.7S56.2,6.5,56.2,5.7z M61.8,27h-5.3V10.1h5.3V27z"/>
	<path class="st0" d="M72.2,23.2c0.7,0,1.3-0.2,1.7-0.6s0.6-1,0.6-1.7h4.9c0,1.9-0.7,3.4-2,4.6c-1.3,1.2-3,1.8-5.1,1.8
		c-2.5,0-4.4-0.8-5.8-2.3c-1.4-1.5-2.1-3.7-2.1-6.4v-0.2c0-1.7,0.3-3.2,0.9-4.5c0.6-1.3,1.5-2.3,2.7-3c1.2-0.7,2.6-1.1,4.2-1.1
		c2.2,0,3.9,0.6,5.2,1.8s1.9,2.9,1.9,4.9h-4.9c0-0.9-0.2-1.5-0.6-2s-1-0.7-1.7-0.7c-1.4,0-2.2,0.9-2.4,2.6c-0.1,0.5-0.1,1.3-0.1,2.3
		c0,1.7,0.2,2.9,0.6,3.5S71.3,23.3,72.2,23.2L72.2,23.2z"/>
	<path class="st0" d="M91.2,27c-0.2-0.3-0.3-0.9-0.5-1.5c-1,1.2-2.3,1.8-4.1,1.8c-1.6,0-2.9-0.5-4.1-1.4c-1.1-1-1.7-2.2-1.7-3.6
		c0-1.8,0.7-3.2,2-4.1c1.3-0.9,3.3-1.4,5.9-1.4h1.6v-0.9c0-1.6-0.7-2.3-2-2.3c-1.2,0-1.9,0.6-1.9,1.9h-5.3c0-1.6,0.7-3,2.1-4
		c1.4-1,3.2-1.5,5.3-1.5s3.9,0.5,5.1,1.6c1.2,1.1,1.9,2.5,1.9,4.3v7.5c0,1.5,0.3,2.7,0.7,3.6V27L91.2,27L91.2,27z M87.9,23.6
		c0.7,0,1.2-0.1,1.6-0.4s0.7-0.6,0.9-1v-2.7h-1.5c-1.8,0-2.8,0.8-2.8,2.5c0,0.5,0.2,0.9,0.5,1.2C87,23.4,87.4,23.6,87.9,23.6
		L87.9,23.6z"/>
	<path class="st0" d="M108.8,14.9l-1.7-0.1c-1.7,0-2.7,0.5-3.2,1.6V27h-5.3V10.1h4.9l0.2,2.2c0.9-1.6,2.1-2.5,3.7-2.5
		c0.6,0,1.1,0.1,1.5,0.2L108.8,14.9L108.8,14.9z"/>
	<path class="st0" d="M109.8,18.4c0-2.7,0.6-4.8,1.7-6.3c1.2-1.5,2.8-2.3,4.8-2.3c1.5,0,2.8,0.6,3.8,1.8V3h5.3v24h-4.7l-0.3-1.8
		c-1.1,1.4-2.5,2.1-4.1,2.1c-2,0-3.6-0.8-4.8-2.3S109.8,21.3,109.8,18.4L109.8,18.4z M115.1,18.8c0,3,0.9,4.5,2.6,4.5
		c1.2,0,2-0.5,2.5-1.5v-6.4c-0.5-1-1.3-1.5-2.5-1.5c-1.6,0-2.5,1.3-2.6,3.9L115.1,18.8L115.1,18.8z"/>
</g>
</svg>
